<?xml version="1.0" encoding="UTF-8"?>
<svg id="Layer_2" xmlns="http://www.w3.org/2000/svg" viewBox="0 0 42.39 42.47">
  <defs>
    <style>
      .cls-1 {
        fill: #fef8ef;
      }

      .cls-2 {
        fill: #998675;
      }

      .cls-3 {
        fill: #f0ab1a;
      }

      .cls-4 {
        fill: #f2e9df;
      }

      .cls-5 {
        fill: #fcfaf7;
      }
    </style>
  </defs>
  <g id="Layer_2-2" data-name="Layer_2">
    <g id="Logo_x3F_">
      <g>
        <circle class="cls-5" cx="21.19" cy="21.19" r="21.19"/>
        <path class="cls-4" d="M38.57,29.29c-.09.19-6.55,2.91-6.55,2.91l-4.55,7.64c-.22.2-.26-.62-.55-.55l-18.56-4.18c-.5-.17-.13-.37-.55-.55-2.55-2.37-4-3.92-6.31-7.87-.48-.82-.91-1.68-1.31-2.55.14.99.34,1.99.63,2.98,3.23,11.25,14.97,17.75,26.22,14.52,8.18-2.35,13.85-9.2,15.09-17.09-.65.84-1.34,1.86-2.05,2.83-.5.69-1.01,1.35-1.52,1.9Z"/>
        <path class="cls-3" d="M10.92,4.91s12.19-1.64,12.19-1.64l10.73,2.73,5.46,7.1-2.18,6.19,1.46,9.46-6.85,2.99-4.55,8.37-19.35-5.54-2-12.55s-4.18-3.09-4.18-3.27S10.92,4.91,10.92,4.91Z"/>
        <path class="cls-2" d="M22.71,4.33c.35-.07,10.52,2.72,10.94,3.53,1.05,2.03,2.58,3.75,3.81,5.67.16.24.24.48.27.71.19.27.3.59.26.93-.11.87-.23,1.74-.35,2.61l1.66-4.69-5.46-7.1-10.73-2.73-12.19,1.64S1.64,18.56,1.64,18.74c0,.04.18.2.47.44,3.25-4.13,6.27-8.44,9.23-12.78.45-.67,11.21-2.12,11.37-2.07Z"/>
      </g>
      <g>
        <path class="cls-1" d="M19.37,31.98c-.5,0-1.16-.01-1.97-.04-1.05-.02-1.71-.04-1.97-.04l-2.62-.04c-1.73-.03-1.38-1.9-1.36-3.17.02-1.27.03-2.23.03-2.87,0-.68-.02-1.7-.06-3.05-.04-1.35-.06-2.37-.06-3.05,0-.13.09-.19.26-.19s.44,0,.79.03c.35.02.61.03.78.03.19,0,.48-.01.86-.03.38-.02.67-.03.86-.03.09,0,.13.06.12.17v.11c-.08,1.1-.16,2.75-.25,4.96v2.32c0,.75,0,1.3,0,1.64l.02.21c0,.07.05.11.13.13h.23c.53,0,1.32-.03,2.37-.08,1.05-.06,1.84-.08,2.37-.08.16,0,.24.07.24.2,0,1-.07,1.86-.22,2.59-.03.15,2.1.3,2,.33-.03.01-2.34-.04-2.55-.04Z"/>
        <path class="cls-1" d="M9.1,19.74c0,1.44,1.26.72,1.26.72,2.79-2.26,8.66-8.84,10.97-9.77,2.89,1.32,8.52,8.87,8.52,8.87l-3.07-.18s1.44,13.36-1.26,12.64c6.68.36,5.42-.36,5.23-11.55,1.81.54,1.62-.9,1.26-1.62,0,0-6.86-10.83-10.65-10.83-3.25,0-11.91,9.93-12.27,11.73Z"/>
        <path class="cls-1" d="M30.29,28.06c0,1.09-.34,2-1.02,2.72-.78.83-2.14,1.24-4.1,1.24-.15,0-.36,0-.64,0h-.63c-2.19,0-3.5-.04-3.91-.13-.17-.04-.26-.13-.26-.28,0-.64.04-1.6.11-2.89.07-1.29.11-2.25.11-2.9,0-.69-.04-1.98-.11-3.89-.02-.49-.05-1.22-.1-2.19v-.55c0-.11,2.07,0,3.25,0,1.89,0,3.79.18,3.79.18.77.12,1.4.46,1.85.73.92.56,1.38,1.52,1.38,2.86,0,.35-.11.72-.32,1.11-.15.28-.36.56-.61.84-.22.24-.33.36-.33.34,0,.04.08.11.23.2.42.24.74.61.98,1.13.21.46.32.96.32,1.48ZM26.46,23.05c0-.51-.26-.85-.77-1.02-.29-.09-.75-.13-1.41-.13s-.96.05-.96.14c0,.11-.01.28-.03.51-.02.23-.03.4-.03.51,0,.59.05.93.15,1,.07.05.44.08,1.13.08,1.28,0,1.92-.37,1.92-1.1ZM26.73,28.03c0-.53-.22-.9-.67-1.09-.29-.12-.75-.18-1.39-.18-.77,0-1.18.03-1.25.08-.07.06-.1.42-.1,1.09s.04,1.09.12,1.16c.08.07.5.11,1.28.11.64,0,1.09-.05,1.35-.15.43-.17.65-.52.65-1.03Z"/>
      </g>
    </g>
  </g>
</svg>